<?xml version="1.0" encoding="UTF-8"?>
<svg id="Capa_1" data-name="Capa 1" xmlns="http://www.w3.org/2000/svg" viewBox="0 0 141.69 155">
  <defs>
    <style>
      .cls-1 {
        fill: #fff;
      }
    </style>
  </defs>
  <path class="cls-1" d="M141.69,0l-2.99,2.99L63.41,77.65c-.58.58-1.35.92-2.17.96h0c-3.06.17-4.72-3.53-2.55-5.7l23.75-23.76c1.68-1.68,1.14-4.54-1.05-5.47-13.02-5.5-28.64-2.94-39.25,7.67-11.82,11.82-13.65,29.84-5.48,43.58,1.09,1.49,1.63,3.24,1.63,4.98,0,1.14-.23,2.28-.69,3.34-.41.95-1,1.84-1.78,2.61l-15.52,15.52.15-.33c.22-.48.44-.96.65-1.45,4.13-9.67,4.87-20.43,2.37-30.68-3.76-15.4.38-32.34,12.41-44.37,11.23-11.23,31.81-15.95,47.98-13.55,6.29.93,12.7-.56,17.97-4.12L141.69,0Z"/>
  <path class="cls-1" d="M0,155l3-2.97,75.57-74.38c.58-.57,1.36-.91,2.18-.96h0c3.06-.16,4.7,3.55,2.53,5.71l-23.84,23.67c-1.69,1.67-1.16,4.54,1.03,5.47,13,5.55,28.63,3.05,39.27-7.52,11.86-11.77,13.76-29.79,5.65-43.56-1.09-1.5-1.62-3.24-1.61-4.98,0-1.14.24-2.28.7-3.34.41-.95,1.01-1.84,1.79-2.61l15.57-15.46-.15.33c-.23.48-.45.96-.65,1.45-4.16,9.66-4.95,20.41-2.49,30.67,3.7,15.42-.5,32.34-12.58,44.32-11.27,11.19-31.87,15.83-48.03,13.37-6.29-.96-12.7.51-17.99,4.05L0,155Z"/>
</svg>